# xmcd
#
# Track frame offsets:
#	150
#	20977
#	37471
#	55208
#	73314
#	96074
#	115509
#	135456
#	155446
#	174111
#	193766
#	215488
#	241648
#	264327
#	280495
#
# Disc length: 3907 seconds
#
# Revision: 1
# Processed by: cddbd v1.5.2PL0 Copyright (c) Steve Scherf et al.
# Submitted via: audiograbber 1.83.01
#
DISCID=da0f410f
DTITLE=Buddaheads - Something New
DYEAR=2015
DGENRE=Bluesrock
TTITLE0=Shake My System Down		
TTITLE1=Cold Man Cold
TTITLE2=Intentions
TTITLE3=These Arms of Mine
TTITLE4=Ride
TTITLE5=Something New
TTITLE6=Lovin Time
TTITLE7=It's a Lovin Crime
TTITLE8=Cross to Bear
TTITLE9=Still Not Over You
TTITLE10=Jump in Your Fire
TTITLE11=Long Haul
TTITLE12=For the Last Time
TTITLE13=Rosaleen	
TTITLE14=Ripped Off Rag
EXTD=
EXTT0=
EXTT1=
EXTT2=
EXTT3=
EXTT4=
EXTT5=
EXTT6=
EXTT7=
EXTT8=
EXTT9=
EXTT10=
EXTT11=
EXTT12=
EXTT13=
EXTT14=
PLAYORDER=
